<?xml version="1.0" encoding="utf-8"?>
<!-- Generator: Adobe Illustrator 25.2.1, SVG Export Plug-In . SVG Version: 6.00 Build 0)  -->
<svg version="1.1" id="Camada_1" xmlns="http://www.w3.org/2000/svg" xmlns:xlink="http://www.w3.org/1999/xlink" x="0px" y="0px"
	 viewBox="0 0 1080 1080" style="enable-background:new 0 0 1080 1080;" xml:space="preserve">
<style type="text/css">
	.st0{fill:#B7B7B7;}
	.st1{fill:#0C0101;stroke:#000000;stroke-miterlimit:10;}
	.st2{fill:#B01412;}
	.st3{font-family:'ControlFreak';}
	.st4{font-size:100.4207px;}
	.st5{letter-spacing:20;}
	.st6{fill:#0C0101;}
	.st7{fill:#BCBCBC;}
	.st8{fill:#FFF5F5;}
	.st9{fill:url(#SVGID_1_);}
</style>
<rect x="-1262.3" y="-563.7" class="st0" width="1080" height="616.9"/>
<g>
	<path class="st1" d="M835.2,430.6c0,0-20.5,87.9-116.4,149.3v0.8c-68.2,45.2-133.9,70.7-193.7,83.6c-0.1,0-0.1,0-0.2,0
		c-54.6,11.8-104.3,13.2-146.4,9.7v-44.7l-0.5-103.3h0.5V142.7H525v383.5C538.7,528.8,676.9,550.2,835.2,430.6z"/>
	<path class="st2" d="M718.8,620.5v103h-194v0H378.4v-4.9c57.1-7.1,105.4-15.3,146.4-24.2c0.1,0,0.1,0,0.2,0
		C632.4,671.7,689.1,644.5,718.8,620.5z"/>
	<text transform="matrix(1 0 0 1 162.9233 918.3984)" class="st3 st4 st5">Lin Solutions</text>
</g>
<g>
	<path class="st6" d="M835.2,1582.6c0,0-20.5,87.9-116.4,149.3v0.8c-68.2,45.2-133.9,70.7-193.7,83.6c-0.1,0-0.1,0-0.2,0
		c-54.6,11.8-104.3,13.2-146.4,9.7v-44.7l-0.5-103.3h0.5v-383.3H525v383.5C538.7,1680.8,676.9,1702.2,835.2,1582.6z"/>
	<path class="st6" d="M718.8,1772.5v103h-194v0H378.4v-4.9c57.1-7.1,105.4-15.3,146.4-24.2c0.1,0,0.1,0,0.2,0
		C632.4,1823.7,689.1,1796.5,718.8,1772.5z"/>
	<text transform="matrix(1 0 0 1 162.9236 2070.3977)" class="st6 st3 st4 st5">Lin Solutions</text>
</g>
<g>
	<path class="st7" d="M835.2,4162.3c0,0-20.5,87.9-116.4,149.3v0.8c-68.2,45.2-133.9,70.7-193.7,83.6c-0.1,0-0.1,0-0.2,0
		c-54.6,11.8-104.3,13.2-146.4,9.7v-44.7l-0.5-103.3h0.5v-383.3H525V4258C538.7,4260.5,676.9,4281.9,835.2,4162.3z"/>
	<path class="st7" d="M718.8,4352.2v103h-194v0H378.4v-4.9c57.1-7.1,105.4-15.3,146.4-24.2c0.1,0,0.1,0,0.2,0
		C632.4,4403.4,689.1,4376.2,718.8,4352.2z"/>
	<text transform="matrix(1 0 0 1 162.9236 4650.1421)" class="st7 st3 st4 st5">Lin Solutions</text>
</g>
<g>
	<path class="st8" d="M835.2,2820.4c0,0-20.5,87.9-116.4,149.3v0.8c-68.2,45.2-133.9,70.7-193.7,83.6c-0.1,0-0.1,0-0.2,0
		c-54.6,11.8-104.3,13.2-146.4,9.7v-44.7l-0.5-103.3h0.5v-383.3H525v383.5C538.7,2918.6,676.9,2940,835.2,2820.4z"/>
	<path class="st8" d="M718.8,3010.3v103h-194v0H378.4v-4.9c57.1-7.1,105.4-15.3,146.4-24.2c0.1,0,0.1,0,0.2,0
		C632.4,3061.4,689.1,3034.3,718.8,3010.3z"/>
	<text transform="matrix(1 0 0 1 162.9236 3308.1848)" class="st8 st3 st4 st5">Lin Solutions</text>
</g>
<text transform="matrix(1 0 0 1 1244.3334 660.2471)" class="st3" style="font-size:51.7749px; letter-spacing:10;">Lin Solutions</text>
<text transform="matrix(1 0 0 1 1220.9879 704.2786)" style="font-family:'Poppins-Regular'; font-size:18.9464px; letter-spacing:3;">Tecnologia</text>
<rect x="1167.7" y="507.3" style="fill:none;" width="2" height="0"/>
<linearGradient id="SVGID_1_" gradientUnits="userSpaceOnUse" x1="1193.8572" y1="177.0848" x2="1951.4471" y2="177.0848">
	<stop  offset="0.1" style="stop-color:#0C0101"/>
	<stop  offset="0.45" style="stop-color:#FFF5F5"/>
	<stop  offset="0.55" style="stop-color:#FFF5F5"/>
	<stop  offset="0.6099" style="stop-color:#F3D4D4"/>
	<stop  offset="0.7424" style="stop-color:#D67F7E"/>
	<stop  offset="0.9" style="stop-color:#B01412"/>
</linearGradient>
<polygon class="st9" points="1951.4,177.1 1884.2,215.9 1193.9,215.9 1193.9,138.3 1884.2,138.3 "/>
<rect x="1876.5" y="345.7" class="st2" width="100" height="100"/>
<rect x="1219.8" y="345.7" class="st6" width="100" height="100"/>
<rect x="1548.1" y="346.7" class="st8" width="100" height="100"/>
<text transform="matrix(1 0 0 1 1220.8645 297.8878)" style="font-family:'MyriadPro-Regular'; font-size:24px;">#0C0101</text>
<text transform="matrix(1 0 0 1 1557.5947 297.8878)" style="font-family:'MyriadPro-Regular'; font-size:24px;">#FFF5F5</text>
<text transform="matrix(1 0 0 1 1891.3254 297.8878)" style="font-family:'MyriadPro-Regular'; font-size:24px;">#B01412</text>
</svg>
